name C:\Users\u0101727\Documents\MyRepositories\upper-imu-dc\Results\main_tracking\Case_41\FLX01_linearAccelerations_bodyFrame.mot
datacolumns 4
datarows 47
range 3.51000000 3.97000000
endheader 
time	radius_imu_x	radius_imu_y	radius_imu_z	
          3.51000000	         -0.60987120	         -9.46334149	          2.30076320	
          3.52000000	         -0.65832442	         -9.46152986	          2.29654279	
          3.53000000	         -0.69997250	         -9.45881871	          2.30106770	
          3.54000000	         -0.73438865	         -9.45537307	          2.31432235	
          3.55000000	         -0.76148937	         -9.45141102	          2.33574340	
          3.56000000	         -0.78145159	         -9.44720033	          2.36421147	
          3.57000000	         -0.79460762	         -9.44304372	          2.39810706	
          3.58000000	         -0.80134620	         -9.43924528	          2.43543156	
          3.59000000	         -0.80203736	         -9.43605993	          2.47397896	
          3.60000000	         -0.79697774	         -9.43364869	          2.51153355	
          3.61000000	         -0.78634941	         -9.43206234	          2.54606074	
          3.62000000	         -0.77019680	         -9.43125275	          2.57585815	
          3.63000000	         -0.74843097	         -9.43109329	          2.59964927	
          3.64000000	         -0.72085753	         -9.43139276	          2.61662479	
          3.65000000	         -0.68721717	         -9.43191578	          2.62644622	
          3.66000000	         -0.64722385	         -9.43241078	          2.62921061	
          3.67000000	         -0.60063988	         -9.43262734	          2.62539388	
          3.68000000	         -0.54734906	         -9.43233206	          2.61573218	
          3.69000000	         -0.48743730	         -9.43131619	          2.60108339	
          3.70000000	         -0.42129287	         -9.42939293	          2.58234208	
          3.71000000	         -0.34962360	         -9.42641312	          2.56038831	
          3.72000000	         -0.27341532	         -9.42229060	          2.53609363	
          3.73000000	         -0.19385503	         -9.41700950	          2.51035721	
          3.74000000	         -0.11225843	         -9.41060415	          2.48413624	
          3.75000000	         -0.03001109	         -9.40311662	          2.45845036	
          3.76000000	          0.05148310	         -9.39455376	          2.43436056	
          3.77000000	          0.13084621	         -9.38485148	          2.41292976	
          3.78000000	          0.20676353	         -9.37384759	          2.39517199	
          3.79000000	          0.27801983	         -9.36127803	          2.38200678	
          3.80000000	          0.34354053	         -9.34681665	          2.37423928	
          3.81000000	          0.40243709	         -9.33015574	          2.37255620	
          3.82000000	          0.45404549	         -9.31109301	          2.37752052	
          3.83000000	          0.49793319	         -9.28958591	          2.38952662	
          3.84000000	          0.53387405	         -9.26575716	          2.40872439	
          3.85000000	          0.56181765	         -9.23986285	          2.43494162	
          3.86000000	          0.58187300	         -9.21224605	          2.46763675	
          3.87000000	          0.59429271	         -9.18329555	          2.50589419	
          3.88000000	          0.59942674	         -9.15340364	          2.54845164	
          3.89000000	          0.59768038	         -9.12292498	          2.59376429	
          3.90000000	          0.58947519	         -9.09214689	          2.64008690	
          3.91000000	          0.57525590	         -9.06127707	          2.68557294	
          3.92000000	          0.55549311	         -9.03044662	          2.72837549	
          3.93000000	          0.53063247	         -8.99970231	          2.76673338	
          3.94000000	          0.50099128	         -8.96896954	          2.79904683	
          3.95000000	          0.46666346	         -8.93802618	          2.82395841	
          3.96000000	          0.42748321	         -8.90653130	          2.84045229	
          3.97000000	          0.38303971	         -8.87409806	          2.84796452	
